<?xml version="1.0" encoding="utf-8"?>
<!-- Generator: Adobe Illustrator 16.0.0, SVG Export Plug-In . SVG Version: 6.00 Build 0)  -->
<!DOCTYPE svg PUBLIC "-//W3C//DTD SVG 1.1//EN" "http://www.w3.org/Graphics/SVG/1.1/DTD/svg11.dtd">
<svg version="1.1" id="Layer_1" xmlns="http://www.w3.org/2000/svg" xmlns:xlink="http://www.w3.org/1999/xlink" x="0px" y="0px"
	 width="2000px" height="2000px" viewBox="0 0 2000 2000" enable-background="new 0 0 2000 2000" xml:space="preserve">
<pattern  x="360.5" y="1400.5" width="1000" height="1000" patternUnits="userSpaceOnUse" id="New_Pattern_3" viewBox="0 -1000 1000 1000" overflow="visible">
	<g>
		<polygon fill="none" points="0,0 1000,0 1000,-1000 0,-1000 		"/>
		<g>
			<polygon fill="none" points="0,0 1000,0 1000,-1000 0,-1000 			"/>
			<g>
				
					<path fill="#FFFFFF" stroke="#FFFFFF" stroke-width="2" stroke-linecap="round" stroke-linejoin="round" stroke-miterlimit="10" d="
					M879.842-708.098c-3.269,0-6.314-0.812-8.923-2.199c-3.146,7.602-11.442,13.033-21.186,13.033c-6.239,0-11.888-2.23-15.968-5.83
					c-4.131,4.525-10.472,7.424-17.586,7.424c-9.672,0-17.92-5.355-21.114-12.873c-1.314,0.281-2.682,0.445-4.095,0.445
					c-9.542,0-17.276-6.797-17.276-15.18c0-7.453,6.121-14.406,14.184-15.691l-1.192-1.361h95.232l-0.916,1.156
					c8.999,0.525,16.118,7.474,16.118,15.513C897.12-715.277,889.386-708.098,879.842-708.098z M865.03-731.602
					c0.078,0.066,0.157,0.133,0.233,0.199c0.105-0.143,0.202-0.291,0.312-0.432L865.03-731.602z"/>
			</g>
			<g>
				
					<path fill="#FFFFFF" stroke="#FFFFFF" stroke-width="2" stroke-linecap="round" stroke-linejoin="round" stroke-miterlimit="10" d="
					M379.842-958.098c-3.269,0-6.315-0.812-8.923-2.199c-3.147,7.602-11.443,13.033-21.186,13.033c-6.239,0-11.886-2.23-15.966-5.83
					c-4.131,4.525-10.472,7.424-17.587,7.424c-9.672,0-17.919-5.355-21.114-12.873c-1.315,0.281-2.681,0.445-4.094,0.445
					c-9.542,0-17.277-6.797-17.277-15.18c0-7.453,6.12-14.406,14.183-15.691l-1.192-1.361h95.233l-0.916,1.156
					c9,0.525,16.119,7.474,16.119,15.513C397.121-965.277,389.385-958.098,379.842-958.098z M365.03-981.602
					c0.079,0.066,0.158,0.133,0.235,0.199c0.106-0.143,0.202-0.291,0.311-0.432L365.03-981.602z"/>
			</g>
			<g>
				
					<path fill="#FFFFFF" stroke="#FFFFFF" stroke-width="2" stroke-linecap="round" stroke-linejoin="round" stroke-miterlimit="10" d="
					M226.305-787.812c0,8.385-7.733,15.18-17.276,15.18c-3.271,0-6.317-0.812-8.925-2.199c-3.147,7.604-11.441,13.033-21.185,13.033
					c-6.239,0-11.887-2.23-15.968-5.83c-4.129,4.523-10.472,7.424-17.586,7.424c-9.673,0-17.918-5.355-21.115-12.873
					c-1.315,0.281-2.68,0.445-4.093,0.445c-9.542,0-17.279-6.795-17.279-15.18c0-7.451,6.123-14.138,14.185-15.421l-1.192-1.097
					h95.232l-0.916,0.89C219.188-802.911,226.305-795.852,226.305-787.812z M194.215-796.135c0.08,0.064,0.158,0.131,0.236,0.197
					c0.104-0.143,0.201-0.289,0.31-0.43L194.215-796.135z"/>
			</g>
			<g>
				
					<path fill="#FFFFFF" stroke="#FFFFFF" stroke-width="2" stroke-linecap="round" stroke-linejoin="round" stroke-miterlimit="10" d="
					M879.842-208.097c-3.269,0-6.314-0.812-8.923-2.199c-3.146,7.603-11.442,13.032-21.186,13.032c-6.239,0-11.888-2.23-15.968-5.83
					c-4.131,4.525-10.472,7.424-17.586,7.424c-9.672,0-17.92-5.355-21.114-12.873c-1.314,0.281-2.682,0.446-4.095,0.446
					c-9.542,0-17.276-6.798-17.276-15.181c0-7.453,6.121-14.406,14.184-15.691l-1.192-1.361h95.232l-0.916,1.156
					c8.999,0.525,16.118,7.474,16.118,15.513C897.12-215.277,889.386-208.097,879.842-208.097z M865.03-231.602
					c0.078,0.066,0.157,0.134,0.233,0.199c0.105-0.144,0.202-0.291,0.312-0.432L865.03-231.602z"/>
			</g>
			<g>
				
					<path fill="#FFFFFF" stroke="#FFFFFF" stroke-width="2" stroke-linecap="round" stroke-linejoin="round" stroke-miterlimit="10" d="
					M379.842-458.097c-3.269,0-6.315-0.812-8.923-2.199c-3.147,7.602-11.443,13.032-21.186,13.032c-6.239,0-11.886-2.23-15.966-5.83
					c-4.131,4.525-10.472,7.424-17.587,7.424c-9.672,0-17.919-5.355-21.114-12.873c-1.315,0.281-2.681,0.446-4.094,0.446
					c-9.542,0-17.277-6.797-17.277-15.18c0-7.453,6.12-14.407,14.183-15.692l-1.192-1.361h95.233l-0.916,1.156
					c9,0.525,16.119,7.474,16.119,15.513C397.121-465.277,389.385-458.097,379.842-458.097z M365.03-481.601
					c0.079,0.066,0.158,0.133,0.235,0.199c0.106-0.144,0.202-0.291,0.311-0.432L365.03-481.601z"/>
				
					<path fill="#FFFFFF" stroke="#FFFFFF" stroke-width="2" stroke-linecap="round" stroke-linejoin="round" stroke-miterlimit="10" d="
					M726.305-537.812c0,8.384-7.732,15.18-17.275,15.18c-3.271,0-6.317-0.812-8.926-2.199c-3.146,7.604-11.44,13.033-21.185,13.033
					c-6.239,0-11.887-2.23-15.968-5.83c-4.129,4.523-10.473,7.423-17.586,7.423c-9.673,0-17.918-5.354-21.115-12.873
					c-1.315,0.282-2.68,0.446-4.093,0.446c-9.542,0-17.279-6.796-17.279-15.18c0-7.451,6.123-14.138,14.185-15.421l-1.191-1.097
					h95.231l-0.916,0.89C719.188-552.911,726.305-545.851,726.305-537.812z M694.215-546.134c0.08,0.063,0.158,0.131,0.236,0.197
					c0.104-0.143,0.201-0.29,0.31-0.431L694.215-546.134z"/>
			</g>
			<g>
				
					<path fill="#FFFFFF" stroke="#FFFFFF" stroke-width="2" stroke-linecap="round" stroke-linejoin="round" stroke-miterlimit="10" d="
					M226.305-287.812c0,8.385-7.733,15.181-17.276,15.181c-3.271,0-6.317-0.812-8.925-2.199
					c-3.147,7.604-11.441,13.033-21.185,13.033c-6.239,0-11.887-2.229-15.968-5.83c-4.129,4.522-10.472,7.423-17.586,7.423
					c-9.673,0-17.918-5.354-21.115-12.873c-1.315,0.282-2.68,0.446-4.093,0.446c-9.542,0-17.279-6.796-17.279-15.181
					c0-7.45,6.123-14.138,14.185-15.42l-1.192-1.098h95.232l-0.916,0.891C219.188-302.911,226.305-295.852,226.305-287.812z
					 M194.215-296.134c0.08,0.063,0.158,0.131,0.236,0.196c0.104-0.143,0.201-0.289,0.31-0.431L194.215-296.134z"/>
			</g>
			<g>
				
					<path fill="#FFFFFF" stroke="#FFFFFF" stroke-width="2" stroke-linecap="round" stroke-linejoin="round" stroke-miterlimit="10" d="
					M726.305-37.812c0,8.385-7.732,15.181-17.275,15.181c-3.271,0-6.317-0.812-8.926-2.199c-3.146,7.604-11.44,13.033-21.185,13.033
					c-6.239,0-11.887-2.229-15.968-5.83c-4.129,4.522-10.473,7.423-17.586,7.423c-9.673,0-17.918-5.354-21.115-12.873
					c-1.315,0.282-2.68,0.446-4.093,0.446c-9.542,0-17.279-6.796-17.279-15.181c0-7.45,6.123-14.138,14.185-15.42l-1.191-1.098
					h95.231l-0.916,0.891C719.188-52.911,726.305-45.852,726.305-37.812z M694.215-46.134c0.08,0.063,0.158,0.131,0.236,0.196
					c0.104-0.143,0.201-0.289,0.31-0.431L694.215-46.134z"/>
			</g>
		</g>
	</g>
</pattern>
<pattern  x="360.5" y="1400.5" width="80" height="80" patternUnits="userSpaceOnUse" id="SVGID_1_" viewBox="0 -80 80 80" overflow="visible">
	<g>
		<polygon fill="none" points="0,0 80,0 80,-80 0,-80 		"/>
		<g>
			<polygon fill="none" points="0,-80 80,-80 80,0 0,0 			"/>
			<polygon fill="#8BC5EB" points="80,-80 0,-80 0,0 80,0 			"/>
		</g>
	</g>
</pattern>
<pattern  x="360.5" y="1400.5" width="80" height="80" patternUnits="userSpaceOnUse" id="SVGID_2_" viewBox="0 -80 80 80" overflow="visible">
	<g>
		<polygon fill="none" points="0,0 80,0 80,-80 0,-80 		"/>
		<g>
			<polygon fill="none" points="0,-80 80,-80 80,0 0,0 			"/>
			<polygon fill="#8BC5EB" points="80,-80 0,-80 0,0 80,0 			"/>
		</g>
	</g>
</pattern>
<g>
	<pattern  id="SVGID_3_" xlink:href="#SVGID_1_" patternTransform="matrix(0.7388 0 0 -0.3965 -4476.2217 -7959.7896)">
	</pattern>
	<pattern  id="SVGID_4_" xlink:href="#SVGID_2_" patternTransform="matrix(0.7388 0 0 -0.3965 -4476.2217 -7959.7896)">
	</pattern>
	
		<rect opacity="0.5" fill="url(#SVGID_3_)" stroke="url(#SVGID_4_)" stroke-width="2" stroke-linecap="round" stroke-linejoin="round" stroke-miterlimit="10" enable-background="new    " width="2000" height="2000"/>
	<pattern  id="SVGID_5_" xlink:href="#New_Pattern_3" patternTransform="matrix(1 0 0 -1 -0.5 -19590.5)">
	</pattern>
	<rect opacity="0.5" fill="url(#SVGID_5_)" enable-background="new    " width="2000" height="2000"/>
</g>
</svg>
