<?xml version="1.0" encoding="utf-8"?>
<!-- Generator: Adobe Illustrator 16.0.0, SVG Export Plug-In . SVG Version: 6.00 Build 0)  -->
<!DOCTYPE svg PUBLIC "-//W3C//DTD SVG 1.1//EN" "http://www.w3.org/Graphics/SVG/1.1/DTD/svg11.dtd">
<svg version="1.1" id="Layer_1" xmlns="http://www.w3.org/2000/svg" xmlns:xlink="http://www.w3.org/1999/xlink" x="0px" y="0px"
	 width="300px" height="199.999px" viewBox="0 -881.999 300 199.999" enable-background="new 0 -881.999 300 199.999"
	 xml:space="preserve">
<pattern  x="0.5" y="200.5" width="34.698" height="34.698" patternUnits="userSpaceOnUse" id="SVGID_610_" viewBox="0 -34.698 34.698 34.698" overflow="visible">
	<g>
		<polygon fill="none" points="0,0 34.698,0 34.698,-34.698 0,-34.698 		"/>
		<g>
			<polygon fill="none" points="0,-34.698 34.698,-34.698 34.698,0 0,0 			"/>
			<polygon fill="#C69CC8" points="34.698,-34.698 0,-34.698 0,0 34.698,0 			"/>
		</g>
	</g>
</pattern>
<pattern  x="0.5" y="200.5" width="72" height="72" patternUnits="userSpaceOnUse" id="SVGID_611_" viewBox="20 -72 72 72" overflow="visible">
	<g>
		<polygon fill="none" points="20,0 92,0 92,-72 20,-72 		"/>
		<g>
			<polygon fill="none" points="20,-72 20,0 92,0 92,-72 			"/>
			<line fill="none" stroke="#231F20" stroke-width="2.16" x1="19.75" y1="-68.398" x2="92.25" y2="-68.398"/>
			<line fill="none" stroke="#231F20" stroke-width="2.16" x1="19.75" y1="-54" x2="92.25" y2="-54"/>
			<line fill="none" stroke="#231F20" stroke-width="2.16" x1="19.75" y1="-39.6" x2="92.25" y2="-39.6"/>
			<line fill="none" stroke="#231F20" stroke-width="2.16" x1="19.75" y1="-25.2" x2="92.25" y2="-25.2"/>
			<line fill="none" stroke="#231F20" stroke-width="2.16" x1="19.75" y1="-10.8" x2="92.25" y2="-10.8"/>
			<line fill="none" stroke="#231F20" stroke-width="2.16" x1="0" y1="-10.8" x2="14" y2="-10.8"/>
			<line fill="none" stroke="#231F20" stroke-width="2.16" x1="19.75" y1="-61.2" x2="92.25" y2="-61.2"/>
			<line fill="none" stroke="#231F20" stroke-width="2.16" x1="19.75" y1="-46.8" x2="92.25" y2="-46.8"/>
			<line fill="none" stroke="#231F20" stroke-width="2.16" x1="19.75" y1="-32.398" x2="92.25" y2="-32.398"/>
			<line fill="none" stroke="#231F20" stroke-width="2.16" x1="19.75" y1="-18" x2="92.25" y2="-18"/>
			<line fill="none" stroke="#231F20" stroke-width="2.16" x1="19.75" y1="-3.6" x2="92.25" y2="-3.6"/>
			<line fill="none" stroke="#231F20" stroke-width="2.16" x1="0" y1="-3.6" x2="14" y2="-3.6"/>
		</g>
	</g>
</pattern>
<pattern  x="0.5" y="200.5" width="34.698" height="34.698" patternUnits="userSpaceOnUse" id="SVGID_612_" viewBox="0 -34.698 34.698 34.698" overflow="visible">
	<g>
		<polygon fill="none" points="0,0 34.698,0 34.698,-34.698 0,-34.698 		"/>
		<g>
			<polygon fill="none" points="0,-34.698 34.698,-34.698 34.698,0 0,0 			"/>
			<polygon fill="#3F998C" points="34.698,-34.698 0,-34.698 0,0 34.698,0 			"/>
		</g>
	</g>
</pattern>
<pattern  x="0.5" y="200.5" width="34.698" height="34.698" patternUnits="userSpaceOnUse" id="SVGID_613_" viewBox="0 -34.698 34.698 34.698" overflow="visible">
	<g>
		<polygon fill="none" points="0,0 34.698,0 34.698,-34.698 0,-34.698 		"/>
		<g>
			<polygon fill="none" points="0,-34.698 34.698,-34.698 34.698,0 0,0 			"/>
			<polygon fill="#3F998C" points="34.698,-34.698 0,-34.698 0,0 34.698,0 			"/>
		</g>
	</g>
</pattern>
<pattern  x="0.5" y="200.5" width="34.698" height="34.698" patternUnits="userSpaceOnUse" id="SVGID_614_" viewBox="0 -34.698 34.698 34.698" overflow="visible">
	<g>
		<polygon fill="none" points="0,0 34.698,0 34.698,-34.698 0,-34.698 		"/>
		<g>
			<polygon fill="none" points="0,-34.698 34.698,-34.698 34.698,0 0,0 			"/>
			<polygon fill="#3F998C" points="34.698,-34.698 0,-34.698 0,0 34.698,0 			"/>
		</g>
	</g>
</pattern>
<pattern  x="0.5" y="200.5" width="34.698" height="34.698" patternUnits="userSpaceOnUse" id="SVGID_615_" viewBox="0 -34.698 34.698 34.698" overflow="visible">
	<g>
		<polygon fill="none" points="0,0 34.698,0 34.698,-34.698 0,-34.698 		"/>
		<g>
			<polygon fill="none" points="0,-34.698 34.698,-34.698 34.698,0 0,0 			"/>
			<polygon fill="#3F998C" points="34.698,-34.698 0,-34.698 0,0 34.698,0 			"/>
		</g>
	</g>
</pattern>
<pattern  x="0.5" y="200.5" width="34.698" height="34.698" patternUnits="userSpaceOnUse" id="SVGID_616_" viewBox="0 -34.698 34.698 34.698" overflow="visible">
	<g>
		<polygon fill="none" points="0,0 34.698,0 34.698,-34.698 0,-34.698 		"/>
		<g>
			<polygon fill="none" points="0,-34.698 34.698,-34.698 34.698,0 0,0 			"/>
			<polygon fill="#3F998C" points="34.698,-34.698 0,-34.698 0,0 34.698,0 			"/>
		</g>
	</g>
</pattern>
<pattern  x="0.5" y="200.5" width="34.698" height="34.698" patternUnits="userSpaceOnUse" id="SVGID_617_" viewBox="0 -34.698 34.698 34.698" overflow="visible">
	<g>
		<polygon fill="none" points="0,0 34.698,0 34.698,-34.698 0,-34.698 		"/>
		<g>
			<polygon fill="none" points="0,-34.698 34.698,-34.698 34.698,0 0,0 			"/>
			<polygon fill="#3F998C" points="34.698,-34.698 0,-34.698 0,0 34.698,0 			"/>
		</g>
	</g>
</pattern>
<pattern  x="0.5" y="200.5" width="34.698" height="34.698" patternUnits="userSpaceOnUse" id="SVGID_618_" viewBox="0 -34.698 34.698 34.698" overflow="visible">
	<g>
		<polygon fill="none" points="0,0 34.698,0 34.698,-34.698 0,-34.698 		"/>
		<g>
			<polygon fill="none" points="0,-34.698 34.698,-34.698 34.698,0 0,0 			"/>
			<polygon fill="#3F998C" points="34.698,-34.698 0,-34.698 0,0 34.698,0 			"/>
		</g>
	</g>
</pattern>
<pattern  x="0.5" y="200.5" width="34.698" height="34.698" patternUnits="userSpaceOnUse" id="SVGID_619_" viewBox="0 -34.698 34.698 34.698" overflow="visible">
	<g>
		<polygon fill="none" points="0,0 34.698,0 34.698,-34.698 0,-34.698 		"/>
		<g>
			<polygon fill="none" points="0,-34.698 34.698,-34.698 34.698,0 0,0 			"/>
			<polygon fill="#3F998C" points="34.698,-34.698 0,-34.698 0,0 34.698,0 			"/>
		</g>
	</g>
</pattern>
<pattern  x="0.5" y="200.5" width="34.698" height="34.698" patternUnits="userSpaceOnUse" id="SVGID_620_" viewBox="0 -34.698 34.698 34.698" overflow="visible">
	<g>
		<polygon fill="none" points="0,0 34.698,0 34.698,-34.698 0,-34.698 		"/>
		<g>
			<polygon fill="none" points="0,-34.698 34.698,-34.698 34.698,0 0,0 			"/>
			<polygon fill="#3F998C" points="34.698,-34.698 0,-34.698 0,0 34.698,0 			"/>
		</g>
	</g>
</pattern>
<pattern  x="0.5" y="200.5" width="34.698" height="34.698" patternUnits="userSpaceOnUse" id="SVGID_621_" viewBox="0 -34.698 34.698 34.698" overflow="visible">
	<g>
		<polygon fill="none" points="0,0 34.698,0 34.698,-34.698 0,-34.698 		"/>
		<g>
			<polygon fill="none" points="0,-34.698 34.698,-34.698 34.698,0 0,0 			"/>
			<polygon fill="#3F998C" points="34.698,-34.698 0,-34.698 0,0 34.698,0 			"/>
		</g>
	</g>
</pattern>
<pattern  x="0.5" y="200.5" width="34.698" height="34.698" patternUnits="userSpaceOnUse" id="SVGID_622_" viewBox="0 -34.698 34.698 34.698" overflow="visible">
	<g>
		<polygon fill="none" points="0,0 34.698,0 34.698,-34.698 0,-34.698 		"/>
		<g>
			<polygon fill="none" points="0,-34.698 34.698,-34.698 34.698,0 0,0 			"/>
			<polygon fill="#3F998C" points="34.698,-34.698 0,-34.698 0,0 34.698,0 			"/>
		</g>
	</g>
</pattern>
<pattern  x="0.5" y="200.5" width="34.698" height="34.698" patternUnits="userSpaceOnUse" id="SVGID_623_" viewBox="0 -34.698 34.698 34.698" overflow="visible">
	<g>
		<polygon fill="none" points="0,0 34.698,0 34.698,-34.698 0,-34.698 		"/>
		<g>
			<polygon fill="none" points="0,-34.698 34.698,-34.698 34.698,0 0,0 			"/>
			<polygon fill="#3F998C" points="34.698,-34.698 0,-34.698 0,0 34.698,0 			"/>
		</g>
	</g>
</pattern>
<pattern  x="0.5" y="200.5" width="34.698" height="34.698" patternUnits="userSpaceOnUse" id="SVGID_624_" viewBox="0 -34.698 34.698 34.698" overflow="visible">
	<g>
		<polygon fill="none" points="0,0 34.698,0 34.698,-34.698 0,-34.698 		"/>
		<g>
			<polygon fill="none" points="0,-34.698 34.698,-34.698 34.698,0 0,0 			"/>
			<polygon fill="#C69CC8" points="34.698,-34.698 0,-34.698 0,0 34.698,0 			"/>
		</g>
	</g>
</pattern>
<pattern  x="0.5" y="200.5" width="34.698" height="34.698" patternUnits="userSpaceOnUse" id="SVGID_625_" viewBox="0 -34.698 34.698 34.698" overflow="visible">
	<g>
		<polygon fill="none" points="0,0 34.698,0 34.698,-34.698 0,-34.698 		"/>
		<g>
			<polygon fill="none" points="0,-34.698 34.698,-34.698 34.698,0 0,0 			"/>
			<polygon fill="#C69CC8" points="34.698,-34.698 0,-34.698 0,0 34.698,0 			"/>
		</g>
	</g>
</pattern>
<pattern  x="0.5" y="200.5" width="72" height="72" patternUnits="userSpaceOnUse" id="SVGID_626_" viewBox="20 -72 72 72" overflow="visible">
	<g>
		<polygon fill="none" points="20,0 92,0 92,-72 20,-72 		"/>
		<g>
			<polygon fill="none" points="20,-72 20,0 92,0 92,-72 			"/>
			<line fill="none" stroke="#231F20" stroke-width="2.16" x1="19.75" y1="-68.398" x2="92.25" y2="-68.398"/>
			<line fill="none" stroke="#231F20" stroke-width="2.16" x1="19.75" y1="-54" x2="92.25" y2="-54"/>
			<line fill="none" stroke="#231F20" stroke-width="2.16" x1="19.75" y1="-39.6" x2="92.25" y2="-39.6"/>
			<line fill="none" stroke="#231F20" stroke-width="2.16" x1="19.75" y1="-25.2" x2="92.25" y2="-25.2"/>
			<line fill="none" stroke="#231F20" stroke-width="2.16" x1="19.75" y1="-10.8" x2="92.25" y2="-10.8"/>
			<line fill="none" stroke="#231F20" stroke-width="2.16" x1="0" y1="-10.8" x2="14" y2="-10.8"/>
			<line fill="none" stroke="#231F20" stroke-width="2.16" x1="19.75" y1="-61.2" x2="92.25" y2="-61.2"/>
			<line fill="none" stroke="#231F20" stroke-width="2.16" x1="19.75" y1="-46.8" x2="92.25" y2="-46.8"/>
			<line fill="none" stroke="#231F20" stroke-width="2.16" x1="19.75" y1="-32.398" x2="92.25" y2="-32.398"/>
			<line fill="none" stroke="#231F20" stroke-width="2.16" x1="19.75" y1="-18" x2="92.25" y2="-18"/>
			<line fill="none" stroke="#231F20" stroke-width="2.16" x1="19.75" y1="-3.6" x2="92.25" y2="-3.6"/>
			<line fill="none" stroke="#231F20" stroke-width="2.16" x1="0" y1="-3.6" x2="14" y2="-3.6"/>
		</g>
	</g>
</pattern>
<pattern  x="0.5" y="200.5" width="34.698" height="34.698" patternUnits="userSpaceOnUse" id="SVGID_627_" viewBox="0 -34.698 34.698 34.698" overflow="visible">
	<g>
		<polygon fill="none" points="0,0 34.698,0 34.698,-34.698 0,-34.698 		"/>
		<g>
			<polygon fill="none" points="0,-34.698 34.698,-34.698 34.698,0 0,0 			"/>
			<polygon fill="#C69CC8" points="34.698,-34.698 0,-34.698 0,0 34.698,0 			"/>
		</g>
	</g>
</pattern>
<pattern  x="0.5" y="200.5" width="34.698" height="34.698" patternUnits="userSpaceOnUse" id="SVGID_628_" viewBox="0 -34.698 34.698 34.698" overflow="visible">
	<g>
		<polygon fill="none" points="0,0 34.698,0 34.698,-34.698 0,-34.698 		"/>
		<g>
			<polygon fill="none" points="0,-34.698 34.698,-34.698 34.698,0 0,0 			"/>
			<polygon fill="#C69CC8" points="34.698,-34.698 0,-34.698 0,0 34.698,0 			"/>
		</g>
	</g>
</pattern>
<pattern  x="0.5" y="200.5" width="72" height="72" patternUnits="userSpaceOnUse" id="SVGID_629_" viewBox="20 -72 72 72" overflow="visible">
	<g>
		<polygon fill="none" points="20,0 92,0 92,-72 20,-72 		"/>
		<g>
			<polygon fill="none" points="20,-72 20,0 92,0 92,-72 			"/>
			<line fill="none" stroke="#231F20" stroke-width="2.16" x1="19.75" y1="-68.398" x2="92.25" y2="-68.398"/>
			<line fill="none" stroke="#231F20" stroke-width="2.16" x1="19.75" y1="-54" x2="92.25" y2="-54"/>
			<line fill="none" stroke="#231F20" stroke-width="2.16" x1="19.75" y1="-39.6" x2="92.25" y2="-39.6"/>
			<line fill="none" stroke="#231F20" stroke-width="2.16" x1="19.75" y1="-25.2" x2="92.25" y2="-25.2"/>
			<line fill="none" stroke="#231F20" stroke-width="2.16" x1="19.75" y1="-10.8" x2="92.25" y2="-10.8"/>
			<line fill="none" stroke="#231F20" stroke-width="2.16" x1="0" y1="-10.8" x2="14" y2="-10.8"/>
			<line fill="none" stroke="#231F20" stroke-width="2.16" x1="19.75" y1="-61.2" x2="92.25" y2="-61.2"/>
			<line fill="none" stroke="#231F20" stroke-width="2.16" x1="19.75" y1="-46.8" x2="92.25" y2="-46.8"/>
			<line fill="none" stroke="#231F20" stroke-width="2.16" x1="19.75" y1="-32.398" x2="92.25" y2="-32.398"/>
			<line fill="none" stroke="#231F20" stroke-width="2.16" x1="19.75" y1="-18" x2="92.25" y2="-18"/>
			<line fill="none" stroke="#231F20" stroke-width="2.16" x1="19.75" y1="-3.6" x2="92.25" y2="-3.6"/>
			<line fill="none" stroke="#231F20" stroke-width="2.16" x1="0" y1="-3.6" x2="14" y2="-3.6"/>
		</g>
	</g>
</pattern>
<pattern  x="0.5" y="200.5" width="34.698" height="34.698" patternUnits="userSpaceOnUse" id="SVGID_630_" viewBox="0 -34.698 34.698 34.698" overflow="visible">
	<g>
		<polygon fill="none" points="0,0 34.698,0 34.698,-34.698 0,-34.698 		"/>
		<g>
			<polygon fill="none" points="0,-34.698 34.698,-34.698 34.698,0 0,0 			"/>
			<polygon fill="#C69CC8" points="34.698,-34.698 0,-34.698 0,0 34.698,0 			"/>
		</g>
	</g>
</pattern>
<pattern  x="0.5" y="200.5" width="72" height="72" patternUnits="userSpaceOnUse" id="SVGID_631_" viewBox="20 -72 72 72" overflow="visible">
	<g>
		<polygon fill="none" points="20,0 92,0 92,-72 20,-72 		"/>
		<g>
			<polygon fill="none" points="20,-72 20,0 92,0 92,-72 			"/>
			<line fill="none" stroke="#231F20" stroke-width="2.16" x1="19.75" y1="-68.398" x2="92.25" y2="-68.398"/>
			<line fill="none" stroke="#231F20" stroke-width="2.16" x1="19.75" y1="-54" x2="92.25" y2="-54"/>
			<line fill="none" stroke="#231F20" stroke-width="2.16" x1="19.75" y1="-39.6" x2="92.25" y2="-39.6"/>
			<line fill="none" stroke="#231F20" stroke-width="2.16" x1="19.75" y1="-25.2" x2="92.25" y2="-25.2"/>
			<line fill="none" stroke="#231F20" stroke-width="2.16" x1="19.75" y1="-10.8" x2="92.25" y2="-10.8"/>
			<line fill="none" stroke="#231F20" stroke-width="2.16" x1="0" y1="-10.8" x2="14" y2="-10.8"/>
			<line fill="none" stroke="#231F20" stroke-width="2.16" x1="19.75" y1="-61.2" x2="92.25" y2="-61.2"/>
			<line fill="none" stroke="#231F20" stroke-width="2.16" x1="19.75" y1="-46.8" x2="92.25" y2="-46.8"/>
			<line fill="none" stroke="#231F20" stroke-width="2.16" x1="19.75" y1="-32.398" x2="92.25" y2="-32.398"/>
			<line fill="none" stroke="#231F20" stroke-width="2.16" x1="19.75" y1="-18" x2="92.25" y2="-18"/>
			<line fill="none" stroke="#231F20" stroke-width="2.16" x1="19.75" y1="-3.6" x2="92.25" y2="-3.6"/>
			<line fill="none" stroke="#231F20" stroke-width="2.16" x1="0" y1="-3.6" x2="14" y2="-3.6"/>
		</g>
	</g>
</pattern>
<pattern  x="0.5" y="200.5" width="34.698" height="34.698" patternUnits="userSpaceOnUse" id="SVGID_644_" viewBox="0 -34.698 34.698 34.698" overflow="visible">
	<g>
		<polygon fill="none" points="0,0 34.698,0 34.698,-34.698 0,-34.698 		"/>
		<g>
			<polygon fill="none" points="0,-34.698 34.698,-34.698 34.698,0 0,0 			"/>
			<polygon fill="#C69CC8" points="34.698,-34.698 0,-34.698 0,0 34.698,0 			"/>
		</g>
	</g>
</pattern>
<pattern  x="0.5" y="200.5" width="34.698" height="34.698" patternUnits="userSpaceOnUse" id="SVGID_645_" viewBox="0 -34.698 34.698 34.698" overflow="visible">
	<g>
		<polygon fill="none" points="0,0 34.698,0 34.698,-34.698 0,-34.698 		"/>
		<g>
			<polygon fill="none" points="0,-34.698 34.698,-34.698 34.698,0 0,0 			"/>
			<polygon fill="#C69CC8" points="34.698,-34.698 0,-34.698 0,0 34.698,0 			"/>
		</g>
	</g>
</pattern>
<pattern  x="0.5" y="200.5" width="72" height="72" patternUnits="userSpaceOnUse" id="SVGID_646_" viewBox="20 -72 72 72" overflow="visible">
	<g>
		<polygon fill="none" points="20,0 92,0 92,-72 20,-72 		"/>
		<g>
			<polygon fill="none" points="20,-72 20,0 92,0 92,-72 			"/>
			<line fill="none" stroke="#231F20" stroke-width="2.16" x1="19.75" y1="-68.398" x2="92.25" y2="-68.398"/>
			<line fill="none" stroke="#231F20" stroke-width="2.16" x1="19.75" y1="-54" x2="92.25" y2="-54"/>
			<line fill="none" stroke="#231F20" stroke-width="2.16" x1="19.75" y1="-39.6" x2="92.25" y2="-39.6"/>
			<line fill="none" stroke="#231F20" stroke-width="2.16" x1="19.75" y1="-25.2" x2="92.25" y2="-25.2"/>
			<line fill="none" stroke="#231F20" stroke-width="2.16" x1="19.75" y1="-10.8" x2="92.25" y2="-10.8"/>
			<line fill="none" stroke="#231F20" stroke-width="2.16" x1="0" y1="-10.8" x2="14" y2="-10.8"/>
			<line fill="none" stroke="#231F20" stroke-width="2.16" x1="19.75" y1="-61.2" x2="92.25" y2="-61.2"/>
			<line fill="none" stroke="#231F20" stroke-width="2.16" x1="19.75" y1="-46.8" x2="92.25" y2="-46.8"/>
			<line fill="none" stroke="#231F20" stroke-width="2.16" x1="19.75" y1="-32.398" x2="92.25" y2="-32.398"/>
			<line fill="none" stroke="#231F20" stroke-width="2.16" x1="19.75" y1="-18" x2="92.25" y2="-18"/>
			<line fill="none" stroke="#231F20" stroke-width="2.16" x1="19.75" y1="-3.6" x2="92.25" y2="-3.6"/>
			<line fill="none" stroke="#231F20" stroke-width="2.16" x1="0" y1="-3.6" x2="14" y2="-3.6"/>
		</g>
	</g>
</pattern>
<pattern  x="0.5" y="200.5" width="34.698" height="34.698" patternUnits="userSpaceOnUse" id="SVGID_647_" viewBox="0 -34.698 34.698 34.698" overflow="visible">
	<g>
		<polygon fill="none" points="0,0 34.698,0 34.698,-34.698 0,-34.698 		"/>
		<g>
			<polygon fill="none" points="0,-34.698 34.698,-34.698 34.698,0 0,0 			"/>
			<polygon fill="#C69CC8" points="34.698,-34.698 0,-34.698 0,0 34.698,0 			"/>
		</g>
	</g>
</pattern>
<pattern  x="0.5" y="200.5" width="34.698" height="34.698" patternUnits="userSpaceOnUse" id="SVGID_648_" viewBox="0 -34.698 34.698 34.698" overflow="visible">
	<g>
		<polygon fill="none" points="0,0 34.698,0 34.698,-34.698 0,-34.698 		"/>
		<g>
			<polygon fill="none" points="0,-34.698 34.698,-34.698 34.698,0 0,0 			"/>
			<polygon fill="#C69CC8" points="34.698,-34.698 0,-34.698 0,0 34.698,0 			"/>
		</g>
	</g>
</pattern>
<pattern  x="0.5" y="200.5" width="72" height="72" patternUnits="userSpaceOnUse" id="SVGID_649_" viewBox="20 -72 72 72" overflow="visible">
	<g>
		<polygon fill="none" points="20,0 92,0 92,-72 20,-72 		"/>
		<g>
			<polygon fill="none" points="20,-72 20,0 92,0 92,-72 			"/>
			<line fill="none" stroke="#231F20" stroke-width="2.16" x1="19.75" y1="-68.398" x2="92.25" y2="-68.398"/>
			<line fill="none" stroke="#231F20" stroke-width="2.16" x1="19.75" y1="-54" x2="92.25" y2="-54"/>
			<line fill="none" stroke="#231F20" stroke-width="2.16" x1="19.75" y1="-39.6" x2="92.25" y2="-39.6"/>
			<line fill="none" stroke="#231F20" stroke-width="2.16" x1="19.75" y1="-25.2" x2="92.25" y2="-25.2"/>
			<line fill="none" stroke="#231F20" stroke-width="2.16" x1="19.75" y1="-10.8" x2="92.25" y2="-10.8"/>
			<line fill="none" stroke="#231F20" stroke-width="2.16" x1="0" y1="-10.8" x2="14" y2="-10.8"/>
			<line fill="none" stroke="#231F20" stroke-width="2.16" x1="19.75" y1="-61.2" x2="92.25" y2="-61.2"/>
			<line fill="none" stroke="#231F20" stroke-width="2.16" x1="19.75" y1="-46.8" x2="92.25" y2="-46.8"/>
			<line fill="none" stroke="#231F20" stroke-width="2.16" x1="19.75" y1="-32.398" x2="92.25" y2="-32.398"/>
			<line fill="none" stroke="#231F20" stroke-width="2.16" x1="19.75" y1="-18" x2="92.25" y2="-18"/>
			<line fill="none" stroke="#231F20" stroke-width="2.16" x1="19.75" y1="-3.6" x2="92.25" y2="-3.6"/>
			<line fill="none" stroke="#231F20" stroke-width="2.16" x1="0" y1="-3.6" x2="14" y2="-3.6"/>
		</g>
	</g>
</pattern>
<path fill="#D1D3D4" stroke="#D1D3D4" stroke-width="7" stroke-linecap="round" stroke-linejoin="round" stroke-miterlimit="10" d="
	M296.5-697.11c0,6.412-4.904,11.61-11.368,11.61H15.705C9.24-685.5,3.5-690.698,3.5-697.11v-169.78
	c0-6.412,5.74-11.609,12.205-11.609h269.427c6.464,0,11.368,5.197,11.368,11.609V-697.11z"/>
<g>
	<g>
		<defs>
			<path id="SVGID_161_" d="M296-697.61c0,6.412-3.904,12.61-10.368,12.61H16.205C9.74-685,3-691.198,3-697.61v-169.78
				C3-873.803,9.74-878,16.205-878h269.427c6.464,0,10.368,4.197,10.368,10.609V-697.61z"/>
		</defs>
		<clipPath id="SVGID_2_">
			<use xlink:href="#SVGID_161_"  overflow="visible"/>
		</clipPath>
		<g clip-path="url(#SVGID_2_)">
			<g>
				
					<path fill="#8BC53F" stroke="#8BC53F" stroke-width="0.3323" stroke-linecap="round" stroke-linejoin="round" stroke-miterlimit="10" d="
					M83.104-750.438c0,0,3.872,4.019,3.242,4.561c-0.627,0.544-2.123-0.987-2.123-0.987s1.523,1.735,0.414,2.719
					c-1.105,0.979-1.776-1.786-1.776-1.786s0.763,1.923,0.058,2.522c-0.706,0.594-2.533-4.831-2.533-4.831L83.104-750.438z"/>
				
					<pattern  id="SVGID_4_" xlink:href="#SVGID_610_" patternTransform="matrix(-0.0812 0.0557 -0.0557 -0.0812 -17880.082 -2375.4561)">
				</pattern>
				<path fill="url(#SVGID_4_)" d="M67.687-764.587c-0.924-1.344-0.583-3.184,0.765-4.104c1.346-0.922,3.185-0.579,4.106,0.764
					c0.33,0.479,0.498,1.022,0.518,1.562l10.965,15.994l-4.116,2.82l-10.967-15.992C68.461-763.755,68.016-764.104,67.687-764.587z"
					/>
				
					<pattern  id="SVGID_6_" xlink:href="#SVGID_611_" patternTransform="matrix(-0.1936 -0.0361 0.0361 -0.1936 -19644.0195 -4317.041)">
				</pattern>
				<path fill="url(#SVGID_6_)" d="M67.687-764.587c-0.924-1.344-0.583-3.184,0.765-4.104c1.346-0.922,3.185-0.579,4.106,0.764
					c0.33,0.479,0.498,1.022,0.518,1.562l10.965,15.994l-4.116,2.82l-10.967-15.992C68.461-763.755,68.016-764.104,67.687-764.587z"
					/>
				
					<path fill="#8BC53F" stroke="#8BC53F" stroke-width="0.5908" stroke-linecap="round" stroke-linejoin="round" stroke-miterlimit="10" d="
					M48.852-733.851c0,0-1.103,1.987-0.803,2.338h6.021l-0.892-1.346c-0.548,0.047-0.598-0.746-0.598-0.746L48.852-733.851z"/>
				<pattern  id="SVGID_8_" xlink:href="#SVGID_612_" patternTransform="matrix(-0.3282 0 0 -0.3282 -21725.5469 -6359.937)">
				</pattern>
				<pattern  id="SVGID_10_" xlink:href="#SVGID_613_" patternTransform="matrix(-0.3282 0 0 -0.3282 -21725.5469 -6359.937)">
				</pattern>
				
					<path fill="url(#SVGID_8_)" stroke="url(#SVGID_10_)" stroke-width="0.5908" stroke-linecap="round" stroke-linejoin="round" stroke-miterlimit="10" d="
					M59.485-732.409c0,0,2.089-4.78,0.804-5.183c-1.286-0.406-1.97,4.704-1.97,4.704"/>
				<pattern  id="SVGID_12_" xlink:href="#SVGID_614_" patternTransform="matrix(-0.3282 0 0 -0.3282 -21725.5469 -6359.937)">
				</pattern>
				<pattern  id="SVGID_14_" xlink:href="#SVGID_615_" patternTransform="matrix(-0.3282 0 0 -0.3282 -21725.5469 -6359.937)">
				</pattern>
				
					<path fill="url(#SVGID_12_)" stroke="url(#SVGID_14_)" stroke-width="0.5908" stroke-linecap="round" stroke-linejoin="round" stroke-miterlimit="10" d="
					M53.501-733.206c0,0,6.179-0.201,7.873,1.343c1.694,1.546,0.401,1.594-0.798,1.594c-1.195,0-13.65,0-13.65,0v-1.243h6.23
					L53.501-733.206z"/>
				<pattern  id="SVGID_16_" xlink:href="#SVGID_616_" patternTransform="matrix(-0.3282 0 0 -0.3282 -21725.5469 -6359.937)">
				</pattern>
				<pattern  id="SVGID_18_" xlink:href="#SVGID_617_" patternTransform="matrix(-0.3282 0 0 -0.3282 -21725.5469 -6359.937)">
				</pattern>
				
					<path fill="url(#SVGID_16_)" stroke="url(#SVGID_18_)" stroke-width="0.5908" stroke-linecap="round" stroke-linejoin="round" stroke-miterlimit="10" d="
					M57.988-732.657c0,0,0.944-5.133-0.401-5.231c-1.343-0.1-0.847,5.031-0.847,5.031"/>
				
					<line fill="none" stroke="#231F20" stroke-width="0.5908" stroke-linecap="round" stroke-linejoin="round" stroke-miterlimit="10" x1="58.584" y1="-731.513" x2="58.584" y2="-732.013"/>
				
					<line fill="none" stroke="#231F20" stroke-width="0.5908" stroke-linecap="round" stroke-linejoin="round" stroke-miterlimit="10" x1="60.078" y1="-731.513" x2="60.078" y2="-732.013"/>
				
					<path fill="#8BC53F" stroke="#8BC53F" stroke-width="0.5908" stroke-linecap="round" stroke-linejoin="round" stroke-miterlimit="10" d="
					M15.132-733.851c0,0-1.107,1.987-0.808,2.338h6.023l-0.891-1.346c-0.55,0.047-0.6-0.746-0.6-0.746L15.132-733.851z"/>
				<pattern  id="SVGID_20_" xlink:href="#SVGID_618_" patternTransform="matrix(-0.3282 0 0 -0.3282 -21725.5469 -6359.937)">
				</pattern>
				<pattern  id="SVGID_22_" xlink:href="#SVGID_619_" patternTransform="matrix(-0.3282 0 0 -0.3282 -21725.5469 -6359.937)">
				</pattern>
				
					<path fill="url(#SVGID_20_)" stroke="url(#SVGID_22_)" stroke-width="0.5908" stroke-linecap="round" stroke-linejoin="round" stroke-miterlimit="10" d="
					M25.738-732.409c0,0,2.091-4.78,0.801-5.183c-1.285-0.406-1.97,4.704-1.97,4.704"/>
				<pattern  id="SVGID_24_" xlink:href="#SVGID_620_" patternTransform="matrix(-0.3282 0 0 -0.3282 -21725.5469 -6359.937)">
				</pattern>
				<pattern  id="SVGID_26_" xlink:href="#SVGID_621_" patternTransform="matrix(-0.3282 0 0 -0.3282 -21725.5469 -6359.937)">
				</pattern>
				
					<path fill="url(#SVGID_24_)" stroke="url(#SVGID_26_)" stroke-width="0.5908" stroke-linecap="round" stroke-linejoin="round" stroke-miterlimit="10" d="
					M19.754-733.206c0,0,6.176-0.201,7.871,1.343c1.691,1.546,0.398,1.594-0.796,1.594c-1.196,0-13.649,0-13.649,0v-1.243h6.228
					L19.754-733.206z"/>
				<pattern  id="SVGID_28_" xlink:href="#SVGID_622_" patternTransform="matrix(-0.3282 0 0 -0.3282 -21725.5469 -6359.937)">
				</pattern>
				<pattern  id="SVGID_30_" xlink:href="#SVGID_623_" patternTransform="matrix(-0.3282 0 0 -0.3282 -21725.5469 -6359.937)">
				</pattern>
				
					<path fill="url(#SVGID_28_)" stroke="url(#SVGID_30_)" stroke-width="0.5908" stroke-linecap="round" stroke-linejoin="round" stroke-miterlimit="10" d="
					M24.235-732.657c0,0,0.948-5.133-0.396-5.231c-1.344-0.1-0.849,5.031-0.849,5.031"/>
				
					<line fill="none" stroke="#231F20" stroke-width="0.5908" stroke-linecap="round" stroke-linejoin="round" stroke-miterlimit="10" x1="24.833" y1="-731.513" x2="24.833" y2="-732.013"/>
				
					<line fill="none" stroke="#231F20" stroke-width="0.5908" stroke-linecap="round" stroke-linejoin="round" stroke-miterlimit="10" x1="26.332" y1="-731.513" x2="26.332" y2="-732.013"/>
				
					<path fill="#231F20" stroke="#231F20" stroke-width="0.5908" stroke-linecap="round" stroke-linejoin="round" stroke-miterlimit="10" d="
					M14.194-766.95c0-1.63,1.323-2.952,2.955-2.952c1.632,0,2.953,1.322,2.953,2.952c0,0.584-0.166,1.124-0.457,1.58v31.486h-4.991
					v-31.486C14.362-765.826,14.194-766.366,14.194-766.95z"/>
				
					<path fill="#231F20" stroke="#231F20" stroke-width="0.5908" stroke-linecap="round" stroke-linejoin="round" stroke-miterlimit="10" d="
					M47.48-766.95c0-1.63,1.32-2.952,2.952-2.952c1.633,0,2.955,1.322,2.955,2.952c0,0.584-0.169,1.124-0.46,1.58v31.486h-4.991
					v-31.486C47.646-765.826,47.48-766.366,47.48-766.95z"/>
				
					<path fill="#8BC53F" stroke="#8BC53F" stroke-width="0.5908" stroke-linecap="round" stroke-linejoin="round" stroke-miterlimit="10" d="
					M-8.906-845.083c0-0.162-0.009-0.317-0.009-0.476c0-18.114,14.687-32.795,32.798-32.795c18.108,0,32.794,14.681,32.794,32.795
					c0,0.262-0.006,0.527-0.01,0.791h0.031v32.098l9.016-0.1v0.013c0.238-0.005,0.474-0.01,0.712-0.01
					c14.684,0,26.59,11.905,26.59,26.59c0,14.687-11.906,26.593-26.59,26.593c-0.124,0-0.246-0.006-0.369-0.007v0.057h-75.08
					v-85.551L-8.906-845.083z"/>
				
					<path fill="#8BC53F" stroke="#8BC53F" stroke-width="0.5908" stroke-linecap="round" stroke-linejoin="round" stroke-miterlimit="10" d="
					M56.12-837.346c0,0,8.449-2.084,9.551,5.626c1.101,7.71-10.386,6.234-10.386,6.234"/>
				
					<path fill="#8BC53F" stroke="#D6DE23" stroke-width="0.5908" stroke-linecap="round" stroke-linejoin="round" stroke-miterlimit="10" d="
					M59.066-833.475c0,0,2.974-1.103,3.354,1.595c0.387,2.694-3.685,2.753-3.685,2.753"/>
				<pattern  id="SVGID_32_" xlink:href="#SVGID_624_" patternTransform="matrix(-0.0985 0 0 -0.0985 -18137.5703 -2604.4155)">
				</pattern>
				<pattern  id="SVGID_34_" xlink:href="#SVGID_625_" patternTransform="matrix(-0.0985 0 0 -0.0985 -18137.5703 -2604.4155)">
				</pattern>
				
					<path fill="url(#SVGID_32_)" stroke="url(#SVGID_34_)" stroke-width="0.5908" stroke-linecap="round" stroke-linejoin="round" stroke-miterlimit="10" d="
					M91.123-775.245H-9.523v15.71h77.602C68.078-759.535,84.921-760.474,91.123-775.245z"/>
				
					<path fill="#231F20" stroke="#231F20" stroke-width="0.5908" stroke-linecap="round" stroke-linejoin="round" stroke-miterlimit="10" d="
					M82.416-764.625c-6.836,4.671-14.338,5.09-14.338,5.09H-9.523v-5.09H82.416z"/>
				
					<path fill="#FFFFFF" stroke="#FFFFFF" stroke-width="0.5908" stroke-linecap="round" stroke-linejoin="round" stroke-miterlimit="10" d="
					M2.696-830.403c0,7.046,4.562,6.734,10.188,6.734c5.624,0,10.187,0.312,10.187-6.734c0-7.041-4.562-12.753-10.187-12.753
					S2.696-837.444,2.696-830.403z"/>
				
					<path fill="#FFFFFF" stroke="#FFFFFF" stroke-width="0.5908" stroke-linecap="round" stroke-linejoin="round" stroke-miterlimit="10" d="
					M32.236-830.403c0,7.046,4.56,6.734,10.187,6.734c5.622,0,10.183,0.312,10.183-6.734c0-7.041-4.561-12.753-10.183-12.753
					C36.796-843.156,32.236-837.444,32.236-830.403z"/>
				
					<path fill="#231F20" stroke="#231F20" stroke-width="0.8862" stroke-linecap="round" stroke-linejoin="round" stroke-miterlimit="10" d="
					M19.635-846.069c0,0-9.162-3.444-13.199,0.098C6.436-845.971,10.179-853.161,19.635-846.069z"/>
				
					<path fill="#231F20" stroke="#231F20" stroke-width="0.8862" stroke-linecap="round" stroke-linejoin="round" stroke-miterlimit="10" d="
					M35.29-846.069c0,0,9.156-3.444,13.191,0.098C48.481-845.971,44.741-853.161,35.29-846.069z"/>
				
					<pattern  id="SVGID_36_" xlink:href="#SVGID_626_" patternTransform="matrix(-0.1393 -0.1393 0.1393 -0.1393 -18711.8438 -3310.3833)">
				</pattern>
				<path fill="url(#SVGID_36_)" d="M91.123-775.245H-9.523v15.71h77.602C68.078-759.535,84.921-760.474,91.123-775.245z"/>
				<pattern  id="SVGID_38_" xlink:href="#SVGID_627_" patternTransform="matrix(-0.0985 0 0 -0.0985 -18137.5703 -2604.3276)">
				</pattern>
				<pattern  id="SVGID_40_" xlink:href="#SVGID_628_" patternTransform="matrix(-0.0985 0 0 -0.0985 -18137.5703 -2604.3276)">
				</pattern>
				
					<polyline fill="url(#SVGID_38_)" stroke="url(#SVGID_40_)" stroke-width="0.5908" stroke-linecap="round" stroke-linejoin="round" stroke-miterlimit="10" points="
					0.026,-770.296 0.026,-750.906 -4.963,-750.906 -4.963,-770.296 				"/>
				
					<pattern  id="SVGID_42_" xlink:href="#SVGID_629_" patternTransform="matrix(-0.1393 -0.1393 0.1393 -0.1393 -18711.8438 -3310.3833)">
				</pattern>
				<polyline fill="url(#SVGID_42_)" points="0.026,-770.296 0.026,-750.906 -4.963,-750.906 -4.963,-770.296 				"/>
				<g>
					
						<path fill="#39B54A" stroke="#39B54A" stroke-width="0.5908" stroke-linecap="round" stroke-linejoin="round" stroke-miterlimit="10" d="
						M49.039-813.5c0,6.199,10.787,8.534,16.987,8.534c6.196,0,11.22-2.335,11.22-8.534c0-6.196-5.023-4.428-11.22-4.428
						C59.826-817.928,49.039-819.696,49.039-813.5z"/>
					
						<path fill="#FFFFFF" stroke="#FFFFFF" stroke-width="0.6291" stroke-linecap="round" stroke-linejoin="round" stroke-miterlimit="10" d="
						M68.623-815.155c0,0.869,1.47,1.574,3.276,1.574c1.811,0,3.279-0.706,3.279-1.574c0-0.867-1.469-1.572-3.279-1.572
						C70.093-816.728,68.623-816.022,68.623-815.155z"/>
				</g>
				<g>
					
						<path fill="#D6DE23" stroke="#D6DE23" stroke-width="0.5908" stroke-linecap="round" stroke-linejoin="round" stroke-miterlimit="10" d="
						M61.956-789.998c0,1.539,6.079,6.491,13.576,6.491c7.5,0,13.578-4.952,13.578-6.491c0-1.535-6.078,2.15-13.578,2.15
						C68.035-787.848,61.956-791.533,61.956-789.998z"/>
					
						<path fill="none" stroke="#8BC53F" stroke-width="0.5908" stroke-linecap="round" stroke-linejoin="round" stroke-miterlimit="10" d="
						M64.921-788.209c0,0,5.184,2.663,11.507,2.603c6.318-0.059,10.254-2.785,10.254-2.785"/>
				</g>
				<g>
					
						<path fill="#231F20" stroke="#231F20" stroke-width="0.6838" stroke-linecap="round" stroke-linejoin="round" stroke-miterlimit="10" d="
						M-6.692-856.966c0,0,8.942-13.233,20.21-15.738l-1.788-5.542C11.729-878.246-5.441-874.671-6.692-856.966z"/>
					
						<path fill="#231F20" stroke="#231F20" stroke-width="0.7548" stroke-linecap="round" stroke-linejoin="round" stroke-miterlimit="10" d="
						M13.324-878.861l1.978,6.516c0,0,26.836,6.521,32.769,3.554c3.945-1.972,8.291-9.871,0.196-21.912c0,0,0.395,7.699-2.17,7.106
						C43.531-884.189,10.168-891.097,13.324-878.861z"/>
				</g>
				
					<path fill="#231F20" stroke="#231F20" stroke-width="0.5908" stroke-linecap="round" stroke-linejoin="round" stroke-miterlimit="10" d="
					M51.646-829.776c0,5.758-3.729,5.501-8.326,5.501c-4.599,0-8.324,0.257-8.324-5.501c0-5.757,3.726-10.426,8.324-10.426
					C47.917-840.202,51.646-835.533,51.646-829.776z"/>
				
					<polyline fill="#FFFFFF" stroke="#FFFFFF" stroke-width="0.5908" stroke-linecap="round" stroke-linejoin="round" stroke-miterlimit="10" points="
					48.881,-838.65 45.429,-833.474 52.141,-833.289 				"/>
				
					<path fill="#231F20" stroke="#231F20" stroke-width="0.5908" stroke-linecap="round" stroke-linejoin="round" stroke-miterlimit="10" d="
					M22.11-829.776c0,5.758-3.73,5.501-8.328,5.501c-4.599,0-8.329,0.257-8.329-5.501c0-5.757,3.73-10.426,8.329-10.426
					C18.38-840.202,22.11-835.533,22.11-829.776z"/>
				
					<polyline fill="#FFFFFF" stroke="#FFFFFF" stroke-width="0.5908" stroke-linecap="round" stroke-linejoin="round" stroke-miterlimit="10" points="
					19.345,-838.65 15.894,-833.474 22.601,-833.289 				"/>
			</g>
		</g>
	</g>
	<g>
		<defs>
			<path id="SVGID_163_" d="M296-697.61c0,6.412-3.904,12.61-10.368,12.61H16.205C9.74-685,3-691.198,3-697.61v-169.78
				C3-873.803,9.74-878,16.205-878h269.427c6.464,0,10.368,4.197,10.368,10.609V-697.61z"/>
		</defs>
		<clipPath id="SVGID_44_">
			<use xlink:href="#SVGID_163_"  overflow="visible"/>
		</clipPath>
		<g clip-path="url(#SVGID_44_)">
			
				<path fill="none" stroke="#8BC53F" stroke-width="2.3633" stroke-linecap="round" stroke-linejoin="round" stroke-miterlimit="10" d="
				M207.279-693.374c4.078,4.076,4.078,10.685,0,14.765c-4.076,4.074-10.688,4.074-14.766,0"/>
			
				<path fill="none" stroke="#8BC53F" stroke-width="2.3633" stroke-linecap="round" stroke-linejoin="round" stroke-miterlimit="10" d="
				M222.139-708.091c-4.078-4.076-10.688-4.076-14.765,0c-4.077,4.078-4.077,10.689,0,14.765"/>
			
				<path fill="#8BC53F" stroke="#8BC53F" stroke-width="0.3323" stroke-linecap="round" stroke-linejoin="round" stroke-miterlimit="10" d="
				M94.952-734.037c0,0-2.154-5.148-2.905-4.784c-0.746,0.36,0.066,2.34,0.066,2.34s-0.987-2.088-2.328-1.459
				c-1.34,0.627,0.93,2.342,0.93,2.342s-1.462-1.466-2.29-1.055c-0.826,0.411,3.431,4.243,3.431,4.243L94.952-734.037z"/>
			
				<pattern  id="SVGID_46_" xlink:href="#SVGID_630_" patternTransform="matrix(-0.0834 0.0524 0.0524 0.0834 -17597.8848 232.6221)">
			</pattern>
			<path fill="url(#SVGID_46_)" d="M101.814-714.266c0.869,1.379,2.694,1.794,4.072,0.927c1.383-0.868,1.797-2.695,0.93-4.076
				c-0.311-0.49-0.743-0.857-1.231-1.092l-10.323-16.414l-4.227,2.657l10.328,16.413
				C101.358-715.311,101.505-714.761,101.814-714.266z"/>
			
				<pattern  id="SVGID_48_" xlink:href="#SVGID_631_" patternTransform="matrix(-0.0437 0.192 0.192 0.0437 -16805.9375 -775.9668)">
			</pattern>
			<path fill="url(#SVGID_48_)" d="M101.814-714.266c0.869,1.379,2.694,1.794,4.072,0.927c1.383-0.868,1.797-2.695,0.93-4.076
				c-0.311-0.49-0.743-0.857-1.231-1.092l-10.323-16.414l-4.227,2.657l10.328,16.413
				C101.358-715.311,101.505-714.761,101.814-714.266z"/>
			
				<path fill="#231F20" stroke="#231F20" stroke-width="0.5908" stroke-linecap="round" stroke-linejoin="round" stroke-miterlimit="10" d="
				M170.699-682.28c0-1.633-1.32-2.953-2.952-2.953c-1.634,0-2.955,1.32-2.955,2.953c0,0.58,0.168,1.126,0.457,1.58v31.483h4.991
				V-680.7C170.532-681.154,170.699-681.7,170.699-682.28z"/>
			
				<path fill="#231F20" stroke="#231F20" stroke-width="0.5908" stroke-linecap="round" stroke-linejoin="round" stroke-miterlimit="10" d="
				M137.414-682.28c0-1.633-1.32-2.953-2.952-2.953c-1.634,0-2.954,1.32-2.954,2.953c0,0.58,0.169,1.126,0.461,1.58v31.483h4.99
				V-680.7C137.248-681.154,137.414-681.7,137.414-682.28z"/>
			
				<path fill="#8BC53F" stroke="#8BC53F" stroke-width="0.5908" stroke-linecap="round" stroke-linejoin="round" stroke-miterlimit="10" d="
				M193.801-760.417c0.004-0.157,0.006-0.315,0.006-0.473c0-18.116-14.681-32.798-32.793-32.798
				c-18.11,0-32.791,14.682-32.791,32.798c0,0.262,0.001,0.526,0.007,0.788h-0.033v32.099l-9.015-0.099v0.013
				c-0.236-0.006-0.474-0.011-0.712-0.011c-14.687,0-26.588,11.906-26.588,26.589c0,14.686,11.901,26.594,26.588,26.594
				c0.123,0,0.245-0.005,0.368-0.008v0.059h75.08v-85.551H193.801z"/>
			
				<path fill="#8BC53F" stroke="#8BC53F" stroke-width="0.5908" stroke-linecap="round" stroke-linejoin="round" stroke-miterlimit="10" d="
				M128.775-752.674c0,0-8.45-2.087-9.552,5.623c-1.1,7.71,10.387,6.231,10.387,6.231"/>
			
				<path fill="#8BC53F" stroke="#D6DE23" stroke-width="0.5908" stroke-linecap="round" stroke-linejoin="round" stroke-miterlimit="10" d="
				M125.83-748.804c0,0-2.973-1.105-3.355,1.592c-0.386,2.695,3.685,2.751,3.685,2.751"/>
			
				<path fill="#8BC53F" stroke="#8BC53F" stroke-width="0.5908" stroke-linecap="round" stroke-linejoin="round" stroke-miterlimit="10" d="
				M191.941-740.818c0,0,11.486,1.478,10.388-6.232c-1.103-7.71-9.554-5.623-9.554-5.623"/>
			
				<path fill="#8BC53F" stroke="#D6DE23" stroke-width="0.5908" stroke-linecap="round" stroke-linejoin="round" stroke-miterlimit="10" d="
				M195.725-748.804c0,0,2.971-1.105,3.354,1.592c0.386,2.695-3.688,2.751-3.688,2.751"/>
			<pattern  id="SVGID_50_" xlink:href="#SVGID_644_" patternTransform="matrix(0.0985 0 0 -0.0985 -14324.7734 -2634.4165)">
			</pattern>
			<pattern  id="SVGID_52_" xlink:href="#SVGID_645_" patternTransform="matrix(0.0985 0 0 -0.0985 -14324.7734 -2634.4165)">
			</pattern>
			
				<path fill="url(#SVGID_50_)" stroke="url(#SVGID_52_)" stroke-width="0.5908" stroke-linecap="round" stroke-linejoin="round" stroke-miterlimit="10" d="
				M93.769-690.575h100.648v15.709h-77.602C116.815-674.866,99.975-675.806,93.769-690.575z"/>
			
				<path fill="#FFFFFF" stroke="#FFFFFF" stroke-width="0.5908" stroke-linecap="round" stroke-linejoin="round" stroke-miterlimit="10" d="
				M182.199-745.732c0,7.044-4.562,6.73-10.188,6.73s-10.187,0.313-10.187-6.73c0-7.045,4.562-12.752,10.187-12.752
				S182.199-752.777,182.199-745.732z"/>
			
				<path fill="#231F20" stroke="#231F20" stroke-width="0.5908" stroke-linecap="round" stroke-linejoin="round" stroke-miterlimit="10" d="
				M178.943-747.158c0,5.757-3.729,5.503-8.325,5.503c-4.599,0-8.323,0.254-8.323-5.503c0-5.756,3.725-10.43,8.323-10.43
				C175.216-757.588,178.943-752.914,178.943-747.158z"/>
			
				<polyline fill="#FFFFFF" stroke="#FFFFFF" stroke-width="0.5908" stroke-linecap="round" stroke-linejoin="round" stroke-miterlimit="10" points="
				176.182,-756.033 172.727,-750.855 180.12,-750.671 			"/>
			
				<path fill="#FFFFFF" stroke="#FFFFFF" stroke-width="0.5908" stroke-linecap="round" stroke-linejoin="round" stroke-miterlimit="10" d="
				M152.66-745.732c0,7.044-4.562,6.73-10.187,6.73c-5.626,0-10.187,0.313-10.187-6.73c0-7.045,4.561-12.752,10.187-12.752
				S152.66-752.777,152.66-745.732z"/>
			
				<path fill="#231F20" stroke="#231F20" stroke-width="0.5908" stroke-linecap="round" stroke-linejoin="round" stroke-miterlimit="10" d="
				M149.407-747.158c0,5.757-3.729,5.503-8.328,5.503c-4.597,0-8.325,0.254-8.325-5.503c0-5.756,3.729-10.43,8.325-10.43
				C145.679-757.588,149.407-752.914,149.407-747.158z"/>
			
				<polyline fill="#FFFFFF" stroke="#FFFFFF" stroke-width="0.5908" stroke-linecap="round" stroke-linejoin="round" stroke-miterlimit="10" points="
				146.643,-756.033 143.189,-750.855 150.586,-750.671 			"/>
			
				<path fill="#231F20" stroke="#231F20" stroke-width="0.8862" stroke-linecap="round" stroke-linejoin="round" stroke-miterlimit="10" d="
				M165.264-761.4c0,0,9.157-3.445,13.195,0.097C178.459-761.304,174.715-768.493,165.264-761.4z"/>
			
				<path fill="#231F20" stroke="#231F20" stroke-width="0.8862" stroke-linecap="round" stroke-linejoin="round" stroke-miterlimit="10" d="
				M149.605-761.4c0,0-9.157-3.445-13.192,0.097C136.413-761.304,140.155-768.493,149.605-761.4z"/>
			
				<pattern  id="SVGID_54_" xlink:href="#SVGID_646_" patternTransform="matrix(0.1393 -0.1393 -0.1393 -0.1393 -13794.0576 -3735.9575)">
			</pattern>
			<path fill="url(#SVGID_54_)" d="M93.769-690.575h100.648v15.709h-77.602C116.815-674.866,99.975-675.806,93.769-690.575z"/>
			<pattern  id="SVGID_56_" xlink:href="#SVGID_647_" patternTransform="matrix(0.0985 0 0 -0.0985 -14324.7734 -2634.3267)">
			</pattern>
			<pattern  id="SVGID_58_" xlink:href="#SVGID_648_" patternTransform="matrix(0.0985 0 0 -0.0985 -14324.7734 -2634.3267)">
			</pattern>
			
				<polyline fill="url(#SVGID_56_)" stroke="url(#SVGID_58_)" stroke-width="0.5908" stroke-linecap="round" stroke-linejoin="round" stroke-miterlimit="10" points="
				184.869,-685.629 184.869,-666.237 189.859,-666.237 189.859,-685.629 			"/>
			
				<pattern  id="SVGID_60_" xlink:href="#SVGID_649_" patternTransform="matrix(0.1393 -0.1393 -0.1393 -0.1393 -13794.0576 -3735.9575)">
			</pattern>
			<polyline fill="url(#SVGID_60_)" points="184.869,-685.629 184.869,-666.237 189.859,-666.237 189.859,-685.629 			"/>
			
				<polygon fill="#8BC53F" stroke="#8BC53F" stroke-width="2.3633" stroke-linecap="round" stroke-linejoin="round" stroke-miterlimit="10" points="
				219.281,-704.774 223.387,-711.88 227.488,-704.774 			"/>
			<g>
				
					<path fill="#39B54A" stroke="#39B54A" stroke-width="0.5908" stroke-linecap="round" stroke-linejoin="round" stroke-miterlimit="10" d="
					M135.854-728.831c0,6.2-10.782,8.537-16.981,8.537c-6.199,0-11.225-2.337-11.225-8.537c0-6.199,5.025-4.426,11.225-4.426
					S135.854-735.03,135.854-728.831z"/>
				
					<path fill="#FFFFFF" stroke="#FFFFFF" stroke-width="0.6291" stroke-linecap="round" stroke-linejoin="round" stroke-miterlimit="10" d="
					M116.271-730.486c0,0.867-1.467,1.573-3.276,1.573c-1.813,0-3.277-0.706-3.277-1.573c0-0.869,1.464-1.571,3.277-1.571
					C114.805-732.058,116.271-731.355,116.271-730.486z"/>
			</g>
			<g>
				
					<path fill="#D6DE23" stroke="#D6DE23" stroke-width="0.5908" stroke-linecap="round" stroke-linejoin="round" stroke-miterlimit="10" d="
					M122.937-705.329c0,1.537-6.077,6.491-13.575,6.491c-7.498,0-13.575-4.954-13.575-6.491c0-1.535,6.077,2.151,13.575,2.151
					C116.86-703.178,122.937-706.864,122.937-705.329z"/>
				
					<path fill="none" stroke="#8BC53F" stroke-width="0.5908" stroke-linecap="round" stroke-linejoin="round" stroke-miterlimit="10" d="
					M119.976-703.541c0,0-5.185,2.665-11.507,2.603c-6.318-0.059-10.256-2.786-10.256-2.786"/>
			</g>
			<g>
				
					<path fill="#231F20" stroke="#231F20" stroke-width="0.6838" stroke-linecap="round" stroke-linejoin="round" stroke-miterlimit="10" d="
					M190.729-772.296c0,0-8.944-13.235-20.211-15.74l1.789-5.542C172.307-793.578,189.477-790.001,190.729-772.296z"/>
				
					<path fill="#231F20" stroke="#231F20" stroke-width="0.7548" stroke-linecap="round" stroke-linejoin="round" stroke-miterlimit="10" d="
					M170.71-794.192l-1.978,6.516c0,0-26.834,6.521-32.77,3.554c-3.945-1.974-8.288-9.871-0.197-21.913c0,0-0.394,7.699,2.174,7.108
					C140.507-799.521,173.871-806.433,170.71-794.192z"/>
			</g>
		</g>
	</g>
	<g>
		<defs>
			<path id="SVGID_165_" d="M296-697.61c0,6.412-3.904,12.61-10.368,12.61H16.205C9.74-685,3-691.198,3-697.61v-169.78
				C3-873.803,9.74-878,16.205-878h269.427c6.464,0,10.368,4.197,10.368,10.609V-697.61z"/>
		</defs>
		<clipPath id="SVGID_62_">
			<use xlink:href="#SVGID_165_"  overflow="visible"/>
		</clipPath>
		<g clip-path="url(#SVGID_62_)">
			<path fill="#1D1D1B" d="M153.135-854.191c0,1.68-0.119,7.879-0.199,10.998c0,1.04-0.039,2.04,0.039,3.12
				c-0.039,1.28-1.199,2.2-2.358,2.2c-1.04,0-2.079-0.56-2.199-1.8c-0.08-0.64-0.08-1.479-0.08-2.12c0-1.32,0.12-2.6,0.12-3.919
				c0-1.04-0.04-2.04-0.04-3v-4.479c0.08-1.52,0.12-3.04,0.12-4.52v-0.16c0-1.68-0.4-1.72-1.88-1.68
				c-0.12,1.32,0.04,2.679-0.04,4.079l-0.04,8.878c0,0.6,0,1.2,0.04,1.88c0,0.76,0.04,1.6,0.04,2.319c0,0.84-0.04,1.6-0.08,2.28
				c-0.16,1.36-0.72,2.16-2.56,2.08h-1.16c-0.52,0-1.079,0-1.64-0.04c-1.279-0.16-1.8-0.959-1.8-1.76c0-1.12,0.84-2.04,2.76-1.959
				h0.04l-0.2-2.879c-0.08-1.52-0.04-3.359-0.04-4.919v-1.2c0-0.56,0-1.12,0.04-1.68c0.04-1.16,0.12-2.561,0.24-3.679
				c0.04-1.12,0.16-2.24,0.2-3.359c-1.04-0.12-1.56-0.64-1.68-1.561c-0.08-1.438,0.64-2.64,2.239-2.6c0.52,0,1.76,0.08,2.319,0
				c2.12,0,4.239-0.08,5.84,0.84h-0.04c2.199,1.32,1.999,3.6,1.999,5.759L153.135-854.191L153.135-854.191z"/>
			<path fill="#1D1D1B" d="M161.855-842.953c0,0.96,0.121,1.919,0.121,3.159c0,0.88-0.881,1.4-1.4,1.72
				c-1.561,0.68-3.199,0.2-3.199-1.6c0-0.76-0.08-1.56-0.16-2.439c-0.08-1.2-0.16-2.68-0.119-3.879c0.039-0.6,0.119-1.28,0.119-1.88
				c0.12-1.399,0.2-2.719,0.16-4.039v-4.439c0-1.16,0-2.319-0.04-3.439l-0.319,0.04c-1.92,0.08-2.279-1.6-1.879-2.68
				c0.278-0.8,0.879-1.16,1.998-1.2c0.2,0,0.4,0,0.68-0.04c0.881-0.04,1.841-0.16,2.721,0.2c0.88,0.24,1.32,1,1.32,1.64
				c0,0.8,0.039,1.68,0.039,2.52c0,1.72,0.08,5.759,0.121,7.519c0.039,1.44-0.041,3-0.121,4.439c-0.039,0.64-0.039,1.32-0.08,1.96
				C161.775-844.513,161.816-843.712,161.855-842.953z"/>
			<path fill="#1D1D1B" d="M163.698-861.35c0-1.48,0.52-2.28,2.278-2.28c0.721,0,1.28-0.08,2.121-0.08
				c0.719,0,3.118,0.04,4.357,1.44l-0.039-0.04c1.199,1.44,1.119,3.64,1.119,5.599v1.32c0,0.44-0.04,0.88-0.04,1.2
				c-0.04,1.44-0.12,3-0.239,4.439c-0.08,1.04,0,2.08,0,3.04c-0.04,0.56-0.04,1.04-0.04,1.56c0,0.72,0,1.4,0.04,2.08
				c0,1-0.119,2.08-0.16,3.12c0,1.08-0.68,1.839-1.68,2c-1.561,0-2.84-0.44-2.84-2.08c-0.08-0.4-0.04-7.359,0.08-8.438
				c0.08-1.04,0.08-2.16,0.119-3.24c0-0.36,0.041-0.8,0.041-1.24c0.08-1.879,0.16-3.879,0.16-5.679c0-1.12-1.08-1-2.121-0.96
				c-0.319,0-0.64,0.04-0.959,0.04C164.698-859.55,163.738-860.27,163.698-861.35z"/>
			<path fill="#1D1D1B" d="M175.297-860.83c-0.279-1.12,0.4-2.919,2.16-2.919h0.561c1.68,0,3.719,0,5.198,0.72
				c1.12,0.6,1.96,1.561,2.199,2.919c0.36,1.601,0.44,3.239,0.44,4.799c0,0.6-0.041,1.2-0.041,1.8c0,1.438-0.039,2.839,0.041,4.398
				c0.039,0.72,0.08,1.72,0.08,2.439c0,1.32-0.08,2.6-0.44,3.959c-0.399,1.4-1.199,2.959-2.56,3.799
				c-1.601,0.88-3.479,0.92-5.479,0.88c-1.72-0.04-2.399-1.919-2.08-3.04v0.04c0.319-1.04,1-1.12,2.199-1.12
				c0.681,0,1.36,0.16,2.079,0.08c0.361-0.04,0.641-0.12,0.841-0.36c0.479-0.48,0.601-1.76,0.601-2.52
				c-0.041-0.64-0.041-1.52-0.041-2.04c0-0.84,0-1.68,0.041-2.399c0.039-0.76,0.039-1.48,0.039-2.28v-3.521
				c0-0.959,0-1.879-0.08-2.839v-0.56c0-0.88-0.08-1.2-1.158-1.2c-0.721,0-1.44,0.12-2.479,0.12
				C176.137-859.67,175.577-859.99,175.297-860.83z"/>
			<path fill="#1D1D1B" d="M194.176-852.551c-0.039,1.32-1.479,2.36-2.6,2.36c-0.92,0-1.641-0.44-1.801-1.44
				c-0.119-0.88,0.08-1.8,0.08-2.919c0-0.36-0.039-0.8-0.039-1.36c-0.041-1.479-0.041-2.08-0.041-2.56c0-0.28,0-0.68-0.039-1.439
				h-0.6c-1.24,0-1.881-0.8-1.881-1.64c0-0.88,0.801-1.959,2.279-2.08c1.119,0,2.24-0.12,3.398,0.24c0.76,0.24,1.48,1.439,1.48,2.04
				v2.56c0,0.68-0.04,1.16,0.039,3.08L194.176-852.551z"/>
			<path fill="#1D1D1B" d="M208.295-850.111c-0.04,1.439-0.12,2.799-0.199,4.159c-0.121,1.36,0.039,2.759,0,4.159v1.72
				c0,1.32-0.881,2.04-2.119,2.04c-1.08,0-2.521-0.68-2.521-1.959v-0.72c0-0.68,0-1.4,0.04-2.08c0.159-2.239,0-4.359,0.04-6.479
				c0-0.52,0.04-1,0.04-1.48v-2.399c0-1.16,0-2.52-0.08-3.64v-0.68c0-1.641,0.08-1.88-1.8-2.08h-0.279
				c-0.6-0.04-1.439,0.04-2.04,0.08c-0.278,0.04-0.72,0.04-0.96,0.04c-1.6,0-2.398-1.08-2.239-2.12c0-0.36,0.36-1.08,0.72-1.399
				l-0.08,0.04c0.44-0.4,0.961-0.44,1.36-0.52c0.521-0.12,1.039-0.2,1.56-0.2c0.761,0,1.479,0.16,2.32,0.16
				c0.119,0,0.439,0.04,0.521,0.04c1.239,0.08,2.479,0.24,3.559,0.92c2.04,1.32,2.04,3.399,2.04,5.399v1.56
				C208.255-853.871,208.335-851.671,208.295-850.111z M199.536-855.031c1.08,0.12,1.92,0.68,1.76,1.88
				c-0.12,0.959-0.16,2-0.12,2.959c0,0.28,0.04,0.68,0.08,1.04c0.08,0.8,0.08,1.68,0.04,2.4c-0.04,0.44-0.08,1-0.04,1.439v1
				c0,0.6-0.04,1.28-0.08,1.88c0,0.84-0.08,1.879-0.08,2.639c0,1.04-1.238,1.68-2.158,1.76c-1.32,0.2-2.32-0.479-2.32-1.959
				c0-1.2,0.04-2.439,0.08-3.6c0.039-1.16,0.119-2.279,0.119-3.519c0-0.76-0.039-1.52-0.119-2.32c-0.04-0.72-0.08-1.521-0.08-2.24
				c0-0.6,0-1.12,0.08-1.6C196.855-854.511,198.376-855.151,199.536-855.031z"/>
			<path fill="#1D1D1B" d="M227.613-849.792c0.08,1.08,0.16,2.16,0.16,3.199c0,0.96-0.08,1.92-0.239,2.76
				c-0.32,1.72-1.08,4.279-3.12,5.039c-0.801,0.32-1.641,0.4-2.398,0.4h-0.761c0.08,1.08,0.08,2.24,0,3.359
				c-0.04,0.88-0.2,1.4-1.319,1.72c-1.199,0.32-3.199-0.24-3.238-1.76c0.158-1.479,0.039-3-0.04-4.879
				c-0.04-1.2-0.08-2.479-0.08-3.64v-1.68c0-0.76,0-1.439-0.04-2.16c0-0.76-0.04-1.56-0.04-2.279c0-1.44,0.08-2.88,0.399-4.439
				c0.319-1.359,1.879-1.72,3.039-1.399c1.199,0.439,1.16,1.08,1.119,2c-0.08,1.398-0.119,2.799-0.119,4.239
				c0,1.879,0.199,3.959,0.239,5.999v1.12c1.88,0.521,1.841-1.959,1.921-3.279c0.039-0.56,0.039-1.12,0.039-1.72
				c0-1.08-0.039-2.16-0.119-3.319c-0.08-0.96-0.16-2.08-0.16-3.04c0-1.32,0-2.6-0.041-3.959c0-0.72,0-1.4-0.039-2.28h-2.399
				c-0.64,0-1.278-0.04-1.96-0.04c-2.238,0-2.561-1.68-1.68-2.839c0.32-0.52,0.761-1,1.84-1h1.92c0.88,0,2.199,0,3.279,0.04
				c1.08,0,2.56-0.04,3.199,1.2v-0.04c0.561,0.919,0.521,2.319,0.479,3.359v1.04c0.04,1.56,0.04,3.759,0.04,5.359
				C227.494-851.751,227.534-850.792,227.613-849.792z"/>
			<path fill="#1D1D1B" d="M241.693-839.953c0.119,1.28-0.76,1.8-2.2,2c-1.119,0.2-2.279-0.52-2.399-1.76
				c-0.199-1.12-0.08-3.639-0.08-4.719v-7.559c0-0.72,0-1.68,0.041-2.6c0.039-1.2,0.079-2.759,0.039-3.639
				c-0.039-0.44,0-0.64-0.119-1.04c-0.16-0.48-1.199-0.4-1.681-0.32c0,0-0.198,0.76-0.239,1.24c-0.08,0.8-0.119,1.56-0.119,2.52
				v3.239c0,0.6,0,1.28-0.041,1.88c-0.08,0.8-0.08,1.56-0.08,2.28c0,1.56,0.16,3.079,0.16,4.839c0.08,1.08-0.039,2.28-0.039,3.52
				c0,1.24-1.16,2.2-2.721,2.12c-1.119-0.04-1.84-0.6-1.84-1.88c0-0.84-0.08-1.72-0.08-2.599c0-3.879,0.16-7.719,0.04-11.598
				c-0.08-1.72,0.12-3.839,0.8-5.599c-1.6,0-2.238-1.04-2.158-2.04c0.119-1.44,0.92-1.84,2.318-1.84c1.08,0,2.08-0.04,3.199-0.08
				c0.72,0,1.4-0.08,2.318-0.08c0.762,0,1.521,0.04,2.24,0.08c1,0.12,1.721,0.36,2.119,1.36c0.4,1.48,0.48,2,0.561,3.08
				c0,0.6,0,1.2,0.041,1.839c0,0.28,0.039,0.52,0.039,0.76c0.041,0.68,0,1.959,0,2.959v1.12c0,1-0.08,2.04-0.119,3.04
				c-0.041,0.96,0,1.919,0,2.879c0,2.16,0.039,4.319,0,6.639V-839.953L241.693-839.953z"/>
			<path fill="#1D1D1B" d="M261.412-849.232c0.04,0.84,0.08,1.84,0.08,2.68c0,1.2-0.08,2.4-0.4,3.56
				c-0.279,1.2-0.8,2.319-1.88,3.239c-1.198,1.12-3.879,1.68-5.479,1.72c-0.92,0.04-3.52,0.08-4.438,0.08
				c-1.08,0-1.64-0.04-2.239-0.12c-1.08-0.2-2.08-1.04-2.08-2.359v-0.48c0-0.56-0.039-1.2,0-1.76c0.041-0.64,0.08-1.479,0.08-2.16
				c0-0.52-0.039-1.04-0.039-1.56c0-0.64-0.041-1.32-0.041-1.96c0-1.399,0-2.759-0.039-4.159c-0.041-1.08-0.041-2.6-0.041-3.679
				c0-0.84,0-1.76,0.041-2.6c0.039-0.92,0.16-2.04,0.279-2.919c0.12-1.08,0.721-1.64,1.801-1.8c1.198-0.16,2.6,0.52,2.639,1.88
				c-0.159,1.359-0.199,2.839-0.199,4.119c0,0.84-0.04,1.76-0.08,2.56c0,0.64,0,2.759,0.04,3.561c0.04,1,0.08,2.358,0.08,3.318v1.36
				c0,0.959,0.04,2,0,2.959c-0.04,0.4-0.04,0.72-0.04,1.04c0,0.36-0.08,0.76,0.641,0.84h2.52c1-0.04,3.238-0.08,3.68-0.959
				c0.398-0.8,0.641-1.36,0.641-2.32c0-1,0.039-2.04,0.039-3.04c0.041-1.04,0.041-2.08,0.041-3.12c0.039-1.04-0.041-2.04-0.08-3.04
				c-0.041-0.8-0.08-1.959-0.08-2.759v-4.519c0-1.72,1-2,1.879-2c1.439,0,2.561,0.52,2.561,1.88c0,1.12,0.04,2.279,0.08,3.399
				c0.04,1.12,0.08,2.318,0.08,3.438C261.452-853.111,261.332-851.231,261.412-849.232z M250.895-847.192
				c0-0.96-0.041-1.48-0.041-2.44c0-0.919-0.039-1.879-0.039-2.799l0.08-2.68c0-1.16,0.08-2.438,0.16-3.599
				c0.039-0.72-0.08-1.48-0.08-2.24v-0.76c-0.08-1.32,1-1.68,2.039-1.88l-0.08,0.04c1.159-0.24,2.479,0.4,2.479,1.8v0.48
				c0,1,0.04,2.04,0.04,2.959c0,1.16-0.16,2.479-0.16,3.599l-0.08,0.88c0,1.36,0.04,2.68,0.08,3.959c0.04,1.08,0.04,1.8,0.04,2.839
				c0,0.8,0,0.64-0.04,1.44c-0.04,1.12-0.84,1.88-1.84,2c-1.319,0.16-2.68-0.32-2.641-1.839
				C250.854-846.312,250.895-846.272,250.895-847.192z"/>
			<path fill="#1D1D1B" d="M276.014-843.953c0.039,0.72,0.039,1.44,0.039,2.16c0,0.6,0,1.24-0.078,1.84
				c-0.121,1.08-1.281,1.919-2.4,1.879c-0.641-0.04-0.721,0-1.279,0c-1.199,0-3-0.36-2.84-1.879c0.16-0.96,0.72-1.92,2.04-1.92
				c0-0.44-0.08-0.84-0.08-1.28c-0.04-0.72-0.12-1.6-0.08-2.398c0.08-2.36-0.12-4.999-0.12-7.359c0-0.96,0.08-1.919,0.08-3.479
				c0-1-0.04-1.919-0.199-2.719c-0.08-0.44-0.399-0.44-0.881-0.44c-0.359,0-0.52,2.679-0.52,4.119c-0.12,1.92-0.12,3-0.24,4.079
				c-0.08,0.8-0.16,1.64-0.279,2.48c-0.16,1.799-0.24,3.639-0.521,5.519c-0.08,0.56-0.12,1.08-0.24,1.6
				c-0.079,0.32-0.239,0.96-0.319,1.4c-0.24,1.24-1.279,2.439-2.52,2.16c-1.04-0.28-1.88-1.12-1.68-2.359
				c0.199-1.12,0.279-2.16,0.358-3.239c0.04-1.04,0.08-2.08,0.2-3v0.04c0.16-1.24,0.28-2.44,0.4-3.68l0.119-1.32
				c0.039-0.72,0.119-1.399,0.16-2.16c0.079-1.24,0.199-2.52,0.359-3.719c0.08-0.68,0.2-1.36,0.439-2.04
				c-1.92-0.04-2.439-1.12-1.84-2.839c0.479-0.76,1.199-1,2.119-1h2.159c0.722,0,1.96-0.04,2.72-0.04c1.32,0,2.84,0.32,3.68,1.56
				c0.881,1.44,1.121,3.28,1.121,4.919v1.08c0,0.4-0.041,0.76-0.041,1.12c0,2.879,0.199,5.759,0.121,8.638
				C275.975-845.472,275.975-844.712,276.014-843.953z"/>
		</g>
	</g>
	<g>
		<defs>
			<path id="SVGID_167_" d="M296-697.61c0,6.412-3.904,12.61-10.368,12.61H16.205C9.74-685,3-691.198,3-697.61v-169.78
				C3-873.803,9.74-878,16.205-878h269.427c6.464,0,10.368,4.197,10.368,10.609V-697.61z"/>
		</defs>
		<clipPath id="SVGID_64_">
			<use xlink:href="#SVGID_167_"  overflow="visible"/>
		</clipPath>
		<g clip-path="url(#SVGID_64_)">
			<g>
				<g>
					
						<circle fill="#231F20" stroke="#231F20" stroke-width="3.1448" stroke-linecap="round" stroke-linejoin="round" stroke-miterlimit="10" cx="218.038" cy="-766.688" r="4.462"/>
					
						<circle fill="#231F20" stroke="#231F20" stroke-width="3.1448" stroke-linecap="round" stroke-linejoin="round" stroke-miterlimit="10" cx="228.262" cy="-766.688" r="4.463"/>
				</g>
				
					<polygon fill="#231F20" stroke="#231F20" stroke-width="3.1448" stroke-linecap="round" stroke-linejoin="round" stroke-miterlimit="10" points="
					231.789,-763.883 223.146,-754.092 214.512,-763.883 				"/>
			</g>
			<g>
				
					<rect x="214.438" y="-769.373" fill="#FFFFFF" stroke="#FFFFFF" stroke-width="1.0531" stroke-linecap="round" stroke-linejoin="round" stroke-miterlimit="10" width="2.332" height="3.955"/>
				
					<line fill="none" stroke="#231F20" stroke-width="0.6861" stroke-linecap="round" stroke-linejoin="round" stroke-miterlimit="10" x1="213.561" y1="-767.352" x2="217.646" y2="-767.352"/>
				
					<line fill="none" stroke="#231F20" stroke-width="0.6861" stroke-linecap="round" stroke-linejoin="round" stroke-miterlimit="10" x1="215.604" y1="-770.35" x2="215.604" y2="-764.01"/>
			</g>
		</g>
	</g>
	<g>
		<defs>
			<path id="SVGID_169_" d="M296-697.61c0,6.412-3.904,12.61-10.368,12.61H16.205C9.74-685,3-691.198,3-697.61v-169.78
				C3-873.803,9.74-878,16.205-878h269.427c6.464,0,10.368,4.197,10.368,10.609V-697.61z"/>
		</defs>
		<clipPath id="SVGID_66_">
			<use xlink:href="#SVGID_169_"  overflow="visible"/>
		</clipPath>
		<g clip-path="url(#SVGID_66_)">
			<g>
				<g>
					
						<circle fill="#231F20" stroke="#231F20" stroke-width="3.1448" stroke-linecap="round" stroke-linejoin="round" stroke-miterlimit="10" cx="244.41" cy="-794.452" r="4.463"/>
					
						<circle fill="#231F20" stroke="#231F20" stroke-width="3.1448" stroke-linecap="round" stroke-linejoin="round" stroke-miterlimit="10" cx="254.633" cy="-794.452" r="4.463"/>
				</g>
				
					<polygon fill="#231F20" stroke="#231F20" stroke-width="3.1448" stroke-linecap="round" stroke-linejoin="round" stroke-miterlimit="10" points="
					258.16,-791.647 249.521,-781.856 240.884,-791.647 				"/>
			</g>
			<g>
				
					<rect x="240.811" y="-797.138" fill="#FFFFFF" stroke="#FFFFFF" stroke-width="1.0531" stroke-linecap="round" stroke-linejoin="round" stroke-miterlimit="10" width="2.33" height="3.957"/>
				
					<line fill="none" stroke="#231F20" stroke-width="0.6861" stroke-linecap="round" stroke-linejoin="round" stroke-miterlimit="10" x1="239.932" y1="-795.118" x2="244.018" y2="-795.118"/>
				
					<line fill="none" stroke="#231F20" stroke-width="0.6861" stroke-linecap="round" stroke-linejoin="round" stroke-miterlimit="10" x1="241.977" y1="-798.114" x2="241.977" y2="-791.772"/>
			</g>
		</g>
	</g>
	<g>
		<defs>
			<path id="SVGID_171_" d="M296-697.61c0,6.412-3.904,12.61-10.368,12.61H16.205C9.74-685,3-691.198,3-697.61v-169.78
				C3-873.803,9.74-878,16.205-878h269.427c6.464,0,10.368,4.197,10.368,10.609V-697.61z"/>
		</defs>
		<clipPath id="SVGID_67_">
			<use xlink:href="#SVGID_171_"  overflow="visible"/>
		</clipPath>
		<g clip-path="url(#SVGID_67_)">
			<g>
				<g>
					
						<path fill="#231F20" stroke="#231F20" stroke-width="3.1448" stroke-linecap="round" stroke-linejoin="round" stroke-miterlimit="10" d="
						M274.736-818.56c0,2.463-2,4.461-4.463,4.461c-2.467,0-4.463-1.998-4.463-4.461c0-2.467,1.996-4.463,4.463-4.463
						C272.736-823.022,274.736-821.026,274.736-818.56z"/>
					
						<path fill="#231F20" stroke="#231F20" stroke-width="3.1448" stroke-linecap="round" stroke-linejoin="round" stroke-miterlimit="10" d="
						M284.961-818.56c0,2.463-1.999,4.461-4.465,4.461c-2.463,0-4.462-1.998-4.462-4.461c0-2.467,1.999-4.463,4.462-4.463
						C282.962-823.022,284.961-821.026,284.961-818.56z"/>
				</g>
				
					<polygon fill="#231F20" stroke="#231F20" stroke-width="3.1448" stroke-linecap="round" stroke-linejoin="round" stroke-miterlimit="10" points="
					284.023,-815.757 275.384,-805.964 266.747,-815.757 				"/>
			</g>
			<g>
				
					<rect x="266.675" y="-821.245" fill="#FFFFFF" stroke="#FFFFFF" stroke-width="1.0531" stroke-linecap="round" stroke-linejoin="round" stroke-miterlimit="10" width="2.329" height="3.955"/>
				
					<line fill="none" stroke="#231F20" stroke-width="0.6861" stroke-linecap="round" stroke-linejoin="round" stroke-miterlimit="10" x1="265.796" y1="-819.226" x2="269.882" y2="-819.226"/>
				
					<line fill="none" stroke="#231F20" stroke-width="0.6861" stroke-linecap="round" stroke-linejoin="round" stroke-miterlimit="10" x1="267.839" y1="-822.222" x2="267.839" y2="-815.882"/>
			</g>
		</g>
	</g>
</g>
</svg>
